<?xml version="1.0" encoding="UTF-8" standalone="no"?>
<!-- Created with Inkscape (http://www.inkscape.org/) -->
<svg
   xmlns:dc="http://purl.org/dc/elements/1.1/"
   xmlns:cc="http://web.resource.org/cc/"
   xmlns:rdf="http://www.w3.org/1999/02/22-rdf-syntax-ns#"
   xmlns:svg="http://www.w3.org/2000/svg"
   xmlns="http://www.w3.org/2000/svg"
   xmlns:sodipodi="http://sodipodi.sourceforge.net/DTD/sodipodi-0.dtd"
   xmlns:inkscape="http://www.inkscape.org/namespaces/inkscape"
   width="744.09448819"
   height="1052.3622047"
   id="svg2"
   sodipodi:version="0.32"
   inkscape:version="0.44.1"
   sodipodi:docbase="C:\Projects\Dice\doc"
   sodipodi:docname="icon_image.svg">
  <defs
     id="defs4" />
  <sodipodi:namedview
     id="base"
     pagecolor="#ffffff"
     bordercolor="#666666"
     borderopacity="1.0"
     gridtolerance="10000"
     guidetolerance="10"
     objecttolerance="10"
     inkscape:pageopacity="0.0"
     inkscape:pageshadow="2"
     inkscape:zoom="1"
     inkscape:cx="375"
     inkscape:cy="520"
     inkscape:document-units="px"
     inkscape:current-layer="layer1"
     inkscape:window-width="1087"
     inkscape:window-height="968"
     inkscape:window-x="38"
     inkscape:window-y="0" />
  <metadata
     id="metadata7">
    <rdf:RDF>
      <cc:Work
         rdf:about="">
        <dc:format>image/svg+xml</dc:format>
        <dc:type
           rdf:resource="http://purl.org/dc/dcmitype/StillImage" />
      </cc:Work>
    </rdf:RDF>
  </metadata>
  <g
     inkscape:label="Layer 1"
     inkscape:groupmode="layer"
     id="layer1">
    <path
       style="fill:#80857f;fill-rule:evenodd;stroke:black;stroke-width:1px;stroke-linecap:butt;stroke-linejoin:miter;stroke-opacity:1;fill-opacity:1"
       d="M 279.81226,556.88236 L 378.30213,367.98383 L 499.01536,545.77068 L 279.81226,556.88236 z "
       id="path1933"
       sodipodi:nodetypes="cccc"
       inkscape:export-filename="C:\Projects\Dice\res\drawable\icon_d20.png"
       inkscape:export-xdpi="12.728303"
       inkscape:export-ydpi="12.728303" />
    <path
       style="fill:#4e4130;fill-rule:evenodd;stroke:black;stroke-width:1px;stroke-linecap:butt;stroke-linejoin:miter;stroke-opacity:1;fill-opacity:1"
       d="M 279.30718,556.88236 L 386.38335,696.28341 L 500.02551,546.78083 L 279.30718,556.88236 z "
       id="path1935"
       inkscape:export-filename="C:\Projects\Dice\res\drawable\icon_d20.png"
       inkscape:export-xdpi="12.728303"
       inkscape:export-ydpi="12.728303" />
    <path
       style="fill:#97978f;fill-rule:evenodd;stroke:black;stroke-width:1px;stroke-linecap:butt;stroke-linejoin:miter;stroke-opacity:1;fill-opacity:1"
       d="M 377.79705,367.47876 L 207.58635,431.11837 L 280.31733,556.88236 L 377.79705,367.47876 z "
       id="path1937"
       sodipodi:nodetypes="cccc"
       inkscape:export-filename="C:\Projects\Dice\res\drawable\icon_d20.png"
       inkscape:export-xdpi="12.728303"
       inkscape:export-ydpi="12.728303" />
    <path
       style="fill:#b4b4b4;fill-rule:evenodd;stroke:black;stroke-width:1px;stroke-linecap:butt;stroke-linejoin:miter;stroke-opacity:1;fill-opacity:1"
       d="M 377.79705,367.47876 L 353.04831,358.38738 L 208.09142,431.11837 L 377.79705,367.47876 z "
       id="path1939"
       inkscape:export-filename="C:\Projects\Dice\res\drawable\icon_d20.png"
       inkscape:export-xdpi="12.728303"
       inkscape:export-ydpi="12.728303" />
    <path
       style="fill:#a3a3a3;fill-rule:evenodd;stroke:black;stroke-width:1px;stroke-linecap:butt;stroke-linejoin:miter;stroke-opacity:1;fill-opacity:1"
       d="M 376.78691,366.4686 L 517.70318,422.02699 L 500.53059,546.78083 L 376.78691,366.4686 z "
       id="path1941"
       sodipodi:nodetypes="cccc"
       inkscape:export-filename="C:\Projects\Dice\res\drawable\icon_d20.png"
       inkscape:export-xdpi="12.728303"
       inkscape:export-ydpi="12.728303" />
    <path
       style="fill:#7e7f81;fill-rule:evenodd;stroke:black;stroke-width:1px;stroke-linecap:butt;stroke-linejoin:miter;stroke-opacity:1;fill-opacity:1"
       d="M 517.1981,421.01684 L 527.80471,611.4306 L 500.53059,545.77068 L 517.1981,421.01684 z "
       id="path1943"
       inkscape:export-filename="C:\Projects\Dice\res\drawable\icon_d20.png"
       inkscape:export-xdpi="12.728303"
       inkscape:export-ydpi="12.728303" />
    <path
       style="fill:#5c5b57;fill-rule:evenodd;stroke:black;stroke-width:1px;stroke-linecap:butt;stroke-linejoin:miter;stroke-opacity:1;fill-opacity:1"
       d="M 528.81486,611.4306 L 500.02551,547.28591 L 386.38335,695.77833 L 528.81486,611.4306 z "
       id="path1945"
       sodipodi:nodetypes="cccc"
       inkscape:export-filename="C:\Projects\Dice\res\drawable\icon_d20.png"
       inkscape:export-xdpi="12.728303"
       inkscape:export-ydpi="12.728303" />
    <path
       style="fill:#5d5347;fill-rule:evenodd;stroke:black;stroke-width:1px;stroke-linecap:butt;stroke-linejoin:miter;stroke-opacity:1;fill-opacity:1"
       d="M 387.3935,696.78849 L 214.65742,627.08796 L 279.81226,558.39759 L 387.3935,696.78849 z "
       id="path1947"
       sodipodi:nodetypes="cccc"
       inkscape:export-filename="C:\Projects\Dice\res\drawable\icon_d20.png"
       inkscape:export-xdpi="12.728303"
       inkscape:export-ydpi="12.728303" />
    <path
       style="fill:#7e786c;fill-rule:evenodd;stroke:black;stroke-width:1px;stroke-linecap:butt;stroke-linejoin:miter;stroke-opacity:1;fill-opacity:1"
       d="M 213.64726,627.08796 L 208.09142,431.62344 L 280.31733,557.89251 L 213.64726,627.08796 z "
       id="path1949"
       sodipodi:nodetypes="cccc"
       inkscape:export-filename="C:\Projects\Dice\res\drawable\icon_d20.png"
       inkscape:export-xdpi="12.728303"
       inkscape:export-ydpi="12.728303" />
    <flowRoot
       xml:space="preserve"
       id="flowRoot2838"
       style="font-family:serif;font-size:144;font-weight:bold"><flowRegion
         id="flowRegion2840"><rect
           id="rect2842"
           width="65.659912"
           height="154.55334"
           x="360.11938"
           y="450.31128"
           style="font-size:144px;font-weight:bold;font-family:serif" /></flowRegion><flowPara
         id="flowPara2844">1</flowPara></flowRoot>    <path
       style="fill:none;fill-rule:evenodd;stroke:black;stroke-width:16.5;stroke-linecap:round;stroke-linejoin:round;stroke-opacity:1;stroke-miterlimit:4;stroke-dasharray:none"
       d="M 370,464.36218 L 385,448.36218 L 383,525.36218"
       id="path2858"
       inkscape:export-filename="C:\Projects\Dice\res\drawable\icon_d20.png"
       inkscape:export-xdpi="12.728303"
       inkscape:export-ydpi="12.728303" />
    <path
       style="fill:none;fill-rule:evenodd;stroke:black;stroke-width:13;stroke-linecap:round;stroke-linejoin:round;stroke-opacity:1;stroke-miterlimit:4;stroke-dasharray:none"
       d="M 257,457.36218 C 257,457.02885 257,456.69552 257,456.36218 C 257,449.83656 261.93324,445.49571 264,441.36218 C 267.13861,435.08497 267.77714,433.58504 268,433.36218 C 269.44331,431.91887 281.57669,447.93887 283,449.36218 C 290.1557,456.51788 293.26261,452.8874 297,460.36218 C 298.22169,462.80557 301.5089,462.73941 304,463.36218"
       id="path2860"
       inkscape:export-filename="C:\Projects\Dice\res\drawable\icon_d20.png"
       inkscape:export-xdpi="12.728303"
       inkscape:export-ydpi="12.728303" />
    <path
       style="fill:none;fill-rule:evenodd;stroke:black;stroke-width:12.5;stroke-linecap:round;stroke-linejoin:round;stroke-opacity:1;stroke-miterlimit:4;stroke-dasharray:none"
       d="M 460,412.36218 C 460.86923,414.10064 463.33333,414.36218 465,415.36218 C 466.66667,416.36218 461.66667,413.36218 460,412.36218 C 457.05719,410.5965 458.32941,420.52983 455,421.36218 C 449.62742,422.70533 445.63709,424.54364 442,426.36218 C 439.81948,427.45244 440.25833,427.5233 439,428.36218"
       id="path2862"
       inkscape:export-filename="C:\Projects\Dice\res\drawable\icon_d20.png"
       inkscape:export-xdpi="12.728303"
       inkscape:export-ydpi="12.728303" />
    <path
       style="fill:none;fill-rule:evenodd;stroke:black;stroke-width:13.25;stroke-linecap:round;stroke-linejoin:round;stroke-opacity:1;stroke-miterlimit:4;stroke-dasharray:none"
       d="M 487,453.36218 C 485.30158,454.21139 482,443.00472 482,439.36218 C 482,435.96284 489.5963,438.95848 492,441.36218 C 495.77554,445.13772 493.76738,450.82743 492,454.36218 C 491.94826,454.46567 486.76143,455.03218 486,460.36218 C 485.29776,465.27786 471.50947,464.36218 468,464.36218 C 463.20123,464.36218 459.83217,457.02653 458,453.36218 C 456.66151,450.68521 458.68891,444.60653 459,443.36218"
       id="path2864"
       inkscape:export-filename="C:\Projects\Dice\res\drawable\icon_d20.png"
       inkscape:export-xdpi="12.728303"
       inkscape:export-ydpi="12.728303" />
    <path
       style="fill:none;fill-rule:evenodd;stroke:black;stroke-width:12.875;stroke-linecap:round;stroke-linejoin:round;stroke-opacity:1;stroke-miterlimit:4;stroke-dasharray:none"
       d="M 414,621.36218 C 411.95512,617.27242 404,638.24904 404,625.36218 C 404,619.69552 404,614.02885 404,608.36218 C 404,603.02885 404,597.69552 404,592.36218 C 404,589.36218 404,586.36218 404,583.36218"
       id="path2866"
       inkscape:export-filename="C:\Projects\Dice\res\drawable\icon_d20.png"
       inkscape:export-xdpi="12.728303"
       inkscape:export-ydpi="12.728303" />
    <path
       style="fill:none;fill-rule:evenodd;stroke:black;stroke-width:12.5;stroke-linecap:butt;stroke-linejoin:miter;stroke-opacity:1;stroke-miterlimit:4;stroke-dasharray:none"
       d="M 383,632.36218 C 383,627.82836 373.62706,631.08248 370,628.36218 C 365.52174,625.00349 364.52932,624.47948 363,618.36218 C 361.56944,612.63995 368.29618,608.89005 369,608.36218 C 373.16547,605.23808 361.32857,601.01932 359,596.36218 C 357.65845,593.67908 361.81217,586.73784 363,584.36218 C 365.50931,579.34356 369.54091,579.36218 375,579.36218 C 376.90029,579.36218 377.73526,579.90923 380,580.36218"
       id="path2868"
       inkscape:export-filename="C:\Projects\Dice\res\drawable\icon_d20.png"
       inkscape:export-xdpi="12.728303"
       inkscape:export-ydpi="12.728303" />
    <path
       style="fill:none;fill-rule:evenodd;stroke:black;stroke-width:1px;stroke-linecap:butt;stroke-linejoin:miter;stroke-opacity:1"
       d="M 238,575.36218 C 228.391,574.8554 238,575.27755 238,568.36218 C 238,565.6049 247.02825,557.30567 248,555.36218 C 248.29814,554.7659 248,554.02885 248,553.36218"
       id="path2872"
       inkscape:export-filename="C:\Projects\Dice\res\drawable\icon_d20.png"
       inkscape:export-xdpi="12.728303"
       inkscape:export-ydpi="12.728303" />
    <path
       style="fill:none;fill-rule:evenodd;stroke:black;stroke-width:7.25;stroke-linecap:butt;stroke-linejoin:miter;stroke-opacity:1;stroke-miterlimit:4;stroke-dasharray:none"
       d="M 219,543.36218 C 219.0467,543.26878 223.90581,555.73895 226,547.36218 C 227.42439,541.66461 228,535.35098 228,529.36218 C 228,522.09276 228.45024,520.36218 236,520.36218 C 237.20713,520.36218 241.77774,523.75105 243,524.36218"
       id="path2874"
       inkscape:export-filename="C:\Projects\Dice\res\drawable\icon_d20.png"
       inkscape:export-xdpi="12.728303"
       inkscape:export-ydpi="12.728303" />
    <path
       style="fill:none;fill-rule:evenodd;stroke:black;stroke-width:8.375;stroke-linecap:round;stroke-linejoin:round;stroke-opacity:1;stroke-miterlimit:4;stroke-dasharray:none"
       d="M 243,566.36218 L 240,567.36218"
       id="path2876"
       inkscape:export-filename="C:\Projects\Dice\res\drawable\icon_d20.png"
       inkscape:export-xdpi="12.728303"
       inkscape:export-ydpi="12.728303" />
    <path
       style="fill:none;fill-rule:evenodd;stroke:black;stroke-width:9.875;stroke-linecap:round;stroke-linejoin:round;stroke-opacity:1;stroke-miterlimit:4;stroke-dasharray:none"
       d="M 258,621.36218 C 262.95536,621.36218 264.49603,628.85822 268,632.36218 C 271.13406,635.49624 274.28388,621.49771 274,620.36218 C 272.77136,615.44763 268.42207,612.05048 267,606.36218 C 264.99383,598.3375 275.07958,600.36218 280,600.36218 C 285.76995,600.36218 294.72913,605.93856 299,607.36218 C 304.21167,609.09941 297.38261,617.97957 297,618.36218"
       id="path2878"
       inkscape:export-filename="C:\Projects\Dice\res\drawable\icon_d20.png"
       inkscape:export-xdpi="12.728303"
       inkscape:export-ydpi="12.728303" />
    <path
       style="fill:none;fill-rule:evenodd;stroke:black;stroke-width:8.625;stroke-linecap:round;stroke-linejoin:round;stroke-opacity:1;stroke-miterlimit:4;stroke-dasharray:none"
       d="M 506,590.36218 C 512.0503,592.37895 502.33375,597.36218 496,597.36218 C 489.30101,597.36218 486.46342,595.50848 485,601.36218"
       id="path2880"
       inkscape:export-filename="C:\Projects\Dice\res\drawable\icon_d20.png"
       inkscape:export-xdpi="12.728303"
       inkscape:export-ydpi="12.728303" />
    <path
       style="fill:none;fill-rule:evenodd;stroke:black;stroke-width:6;stroke-linecap:round;stroke-linejoin:round;stroke-opacity:1;stroke-miterlimit:4;stroke-dasharray:none"
       d="M 484,617.36218 C 482.05635,617.36218 487.33333,619.36218 489,620.36218 C 490.66667,621.36218 485.66667,618.36218 484,617.36218 C 481.36477,615.78104 480.07318,623.36218 477,623.36218 C 468.66667,623.36218 460.33333,623.36218 452,623.36218 C 451.5286,623.36218 451.33333,622.69552 451,622.36218"
       id="path2882"
       inkscape:export-filename="C:\Projects\Dice\res\drawable\icon_d20.png"
       inkscape:export-xdpi="12.728303"
       inkscape:export-ydpi="12.728303" />
    <path
       style="fill:none;fill-rule:evenodd;stroke:black;stroke-width:5.75;stroke-linecap:round;stroke-linejoin:round;stroke-opacity:1;stroke-miterlimit:4;stroke-dasharray:none"
       d="M 517,519.36218 C 514.35156,519.36218 514,532.58895 514,537.36218 C 514,544.91296 512.43337,549.78436 518,542.36218 C 519.21655,540.74011 517.49176,538.32923 517,536.36218"
       id="path2884"
       inkscape:export-filename="C:\Projects\Dice\res\drawable\icon_d20.png"
       inkscape:export-xdpi="12.728303"
       inkscape:export-ydpi="12.728303" />
  </g>
</svg>
